<?xml version="1.0" encoding="UTF-8"?>
<svg width="36px" height="36px" viewBox="0 0 36 36" version="1.1" xmlns="http://www.w3.org/2000/svg" xmlns:xlink="http://www.w3.org/1999/xlink">
    <!-- Generator: Sketch 54.1 (76490) - https://sketchapp.com -->
    <title>logo/learn</title>
    <desc>Created with Sketch.</desc>
    <defs>
        <linearGradient x1="23.5906059%" y1="69.8251706%" x2="79.3721548%" y2="29.4785804%" id="linearGradient-1">
            <stop stop-color="#467EC0" offset="0%"></stop>
            <stop stop-color="#1B9AD2" offset="49.1568917%"></stop>
            <stop stop-color="#41C3DE" offset="100%"></stop>
        </linearGradient>
    </defs>
    <g id="logo/learn" stroke="none" stroke-width="1" fill="none" fill-rule="evenodd">
        <g id="logo">
            <rect id="area" opacity="0" x="0" y="0" width="36" height="36"></rect>
            <path d="M7.125,10.5 L8.25,10.5 L8.25,12 L7.5,12 L7.5,24.75 L6,24.75 L6,11.625 C6,11.0038125 6.5038125,10.5 7.125,10.5 Z M28.875,10.5 C29.4961875,10.5 30,11.0038125 30,11.625 L30,24.75 L28.5,24.75 L28.5,12 L27.75,12 L27.75,10.5 L28.875,10.5 Z M10.8544875,11.6072437 L15.5419875,13.1072437 C15.5798625,13.1192437 15.6184875,13.1252437 15.656175,13.1252437 C15.8149875,13.1252437 15.9623625,13.0236187 16.01355,12.8642437 C16.07655,12.6669937 15.9678,12.4558687 15.77055,12.3926812 L11.08305,10.8926812 C10.8858,10.8294937 10.674675,10.9386187 10.6114875,11.1356812 C10.5484875,11.3329312 10.6572375,11.5440562 10.8544875,11.6072437 Z M10.8544875,14.2322437 L15.5419875,15.7322437 C15.5798625,15.7442437 15.6184875,15.7502437 15.656175,15.7502437 C15.8149875,15.7502437 15.9623625,15.6486187 16.01355,15.4892437 C16.07655,15.2919937 15.9678,15.0808687 15.77055,15.0176812 L11.08305,13.5176812 C10.8858,13.4548687 10.674675,13.5636187 10.6114875,13.7606812 C10.5484875,13.9579312 10.6572375,14.1690562 10.8544875,14.2322437 Z M10.8544875,16.8572437 L15.5419875,18.3572437 C15.5798625,18.3692437 15.6184875,18.3752437 15.656175,18.3752437 C15.8149875,18.3752437 15.9623625,18.2736187 16.01355,18.1142437 C16.07655,17.9169937 15.9678,17.7058687 15.77055,17.6426812 L11.08305,16.1426812 C10.8858,16.0798687 10.674675,16.1886187 10.6114875,16.3856812 C10.5484875,16.5829312 10.6572375,16.7940562 10.8544875,16.8572437 Z M10.8544875,19.4822437 L15.5419875,20.9822437 C15.5798625,20.9942437 15.6184875,21.0002437 15.656175,21.0002437 C15.8149875,21.0002437 15.9623625,20.8986187 16.01355,20.7392437 C16.07655,20.5419937 15.9678,20.3308687 15.77055,20.2676812 L11.08305,18.7676812 C10.8858,18.7046812 10.674675,18.8136187 10.6114875,19.0106812 C10.5484875,19.2079312 10.6572375,19.4190562 10.8544875,19.4822437 Z M9.8971125,8.26505625 L17.0929875,10.3382437 C17.4091125,10.4344312 17.624925,10.7258062 17.624925,11.0559937 L17.624925,24.0000562 L9.602925,21.8552437 C9.2523,21.7843687 8.999925,21.4731187 8.999925,21.1116187 L8.999925,9.00868125 C8.999925,8.52999375 9.43305,8.17111875 9.8971125,8.26505625 Z M25.1455125,11.6072437 C25.3427625,11.5440562 25.4515125,11.3329312 25.3885125,11.1356812 C25.325325,10.9386187 25.1142,10.8294937 24.91695,10.8926812 L20.22945,12.3926812 C20.0322,12.4558687 19.92345,12.6669937 19.98645,12.8642437 C20.0376375,13.0236187 20.1850125,13.1252437 20.343825,13.1252437 C20.3815125,13.1252437 20.4201375,13.1192437 20.4580125,13.1072437 L25.1455125,11.6072437 Z M25.1455125,14.2322437 C25.3427625,14.1690562 25.4515125,13.9579312 25.3885125,13.7606812 C25.325325,13.5636187 25.1142,13.4548687 24.91695,13.5176812 L20.22945,15.0176812 C20.0322,15.0808687 19.92345,15.2919937 19.98645,15.4892437 C20.0376375,15.6486187 20.1850125,15.7502437 20.343825,15.7502437 C20.3815125,15.7502437 20.4201375,15.7442437 20.4580125,15.7322437 L25.1455125,14.2322437 Z M25.1455125,16.8572437 C25.3427625,16.7940562 25.4515125,16.5829312 25.3885125,16.3856812 C25.325325,16.1886187 25.1142,16.0798687 24.91695,16.1426812 L20.22945,17.6426812 C20.0322,17.7058687 19.92345,17.9169937 19.98645,18.1142437 C20.0376375,18.2736187 20.1850125,18.3752437 20.343825,18.3752437 C20.3815125,18.3752437 20.4201375,18.3692437 20.4580125,18.3572437 L25.1455125,16.8572437 Z M25.1455125,19.4822437 C25.3427625,19.4190562 25.4515125,19.2079312 25.3885125,19.0106812 C25.325325,18.8136187 25.1142,18.7046812 24.91695,18.7676812 L20.22945,20.2676812 C20.0322,20.3308687 19.92345,20.5419937 19.98645,20.7392437 C20.0376375,20.8986187 20.1850125,21.0002437 20.343825,21.0002437 C20.3815125,21.0002437 20.4201375,20.9942437 20.4580125,20.9822437 L25.1455125,19.4822437 Z M26.1028875,8.26505625 C26.56695,8.17111875 27.000075,8.52999375 27.000075,9.00868125 L27.000075,21.1116187 C27.000075,21.4731187 26.7477,21.7843687 26.397075,21.8552437 L18.375075,24.0000562 L18.375075,11.0559937 C18.375075,10.7258062 18.5908875,10.4344312 18.9070125,10.3382437 L26.1028875,8.26505625 Z M30.8834813,25.5302063 C31.1921062,25.4985188 31.4682938,25.7231438 31.4999813,26.0323313 L31.4727938,27.1875188 C31.4727938,27.4982063 31.2211688,27.7500188 30.9108563,27.7500188 L5.06191875,27.7500188 C4.75160625,27.7500188 4.49998125,27.4982063 4.49998125,27.1875188 L4.49998125,26.0625188 C4.49998125,25.7518313 4.75160625,25.5000188 5.06191875,25.5000188 L14.9892938,25.5116438 L14.9892938,25.6875188 C14.9892938,25.9982063 15.2409188,26.2500188 15.5514188,26.2500188 L20.4213563,26.2500188 C20.7316688,26.2500188 20.9832938,25.9982063 20.9832938,25.6875188 L20.9832938,25.5185813 L30.8834813,25.5302063 Z" id="Learn" fill="url(#linearGradient-1)"></path>
        </g>
    </g>
</svg>